<?xml version="1.0" encoding="UTF-8" standalone="no"?>
<!-- Created with Inkscape (http://www.inkscape.org/) -->

<svg
   width="200"
   height="160"
   viewBox="0 0 200 160"
   version="1.1"
   id="svg1"
   sodipodi:docname="bird.svg"
   inkscape:version="1.3.2 (091e20e, 2023-11-25, custom)"
   inkscape:export-filename="bappy.png"
   inkscape:export-xdpi="96"
   inkscape:export-ydpi="96"
   xmlns:inkscape="http://www.inkscape.org/namespaces/inkscape"
   xmlns:sodipodi="http://sodipodi.sourceforge.net/DTD/sodipodi-0.dtd"
   xmlns:xlink="http://www.w3.org/1999/xlink"
   xmlns="http://www.w3.org/2000/svg"
   xmlns:svg="http://www.w3.org/2000/svg">
  <sodipodi:namedview
     id="namedview1"
     pagecolor="#ffffff"
     bordercolor="#000000"
     borderopacity="0.25"
     inkscape:showpageshadow="2"
     inkscape:pageopacity="0.0"
     inkscape:pagecheckerboard="0"
     inkscape:deskcolor="#d1d1d1"
     inkscape:document-units="px"
     inkscape:zoom="2.8284271"
     inkscape:cx="104.82858"
     inkscape:cy="118.61716"
     inkscape:window-width="1920"
     inkscape:window-height="1009"
     inkscape:window-x="-8"
     inkscape:window-y="-8"
     inkscape:window-maximized="1"
     inkscape:current-layer="layer1" />
  <defs
     id="defs1">
    <linearGradient
       id="linearGradient34"
       inkscape:collect="always">
      <stop
         style="stop-color:#9fe41a;stop-opacity:1;"
         offset="0"
         id="stop34" />
      <stop
         style="stop-color:#eeea1a;stop-opacity:1;"
         offset="1"
         id="stop35" />
    </linearGradient>
    <linearGradient
       id="linearGradient32"
       inkscape:collect="always">
      <stop
         style="stop-color:#3d943a;stop-opacity:1;"
         offset="0"
         id="stop32" />
      <stop
         style="stop-color:#f2f620;stop-opacity:1;"
         offset="0.75"
         id="stop33" />
    </linearGradient>
    <linearGradient
       id="linearGradient31"
       inkscape:collect="always">
      <stop
         style="stop-color:#145a19;stop-opacity:1;"
         offset="0"
         id="stop27" />
      <stop
         style="stop-color:#f4f53a;stop-opacity:1;"
         offset="0.58194774"
         id="stop30" />
      <stop
         style="stop-color:#e0ee46;stop-opacity:1;"
         offset="1"
         id="stop31" />
    </linearGradient>
    <linearGradient
       id="linearGradient22"
       inkscape:collect="always">
      <stop
         style="stop-color:#145a19;stop-opacity:1;"
         offset="0"
         id="stop22" />
      <stop
         style="stop-color:#f4f53a;stop-opacity:1;"
         offset="0.57999998"
         id="stop23" />
      <stop
         style="stop-color:#e0ee46;stop-opacity:1;"
         offset="1"
         id="stop26" />
    </linearGradient>
    <inkscape:path-effect
       effect="fillet_chamfer"
       id="path-effect3"
       is_visible="true"
       lpeversion="1"
       nodesatellites_param="F,0,0,1,0,1.158253,0,1 @ F,0,0,1,0,4.6874762,0,1 @ F,0,0,1,0,0.78178881,0,1 @ F,0,0,1,0,2.6880225,0,1"
       radius="0"
       unit="px"
       method="auto"
       mode="F"
       chamfer_steps="1"
       flexible="false"
       use_knot_distance="true"
       apply_no_radius="true"
       apply_with_radius="true"
       only_selected="false"
       hide_knots="false" />
    <inkscape:path-effect
       effect="fillet_chamfer"
       id="path-effect1"
       is_visible="true"
       lpeversion="1"
       nodesatellites_param="F,0,0,1,0,0,0,1 @ F,0,0,1,0,0,0,1 @ F,0,0,1,0,0,0,1 @ F,0,0,1,0,17.216648,0,1"
       radius="0"
       unit="px"
       method="auto"
       mode="F"
       chamfer_steps="1"
       flexible="false"
       use_knot_distance="true"
       apply_no_radius="true"
       apply_with_radius="true"
       only_selected="false"
       hide_knots="false" />
    <filter
       inkscape:collect="always"
       style="color-interpolation-filters:sRGB"
       id="filter6"
       x="-0.045989755"
       y="-0.045989755"
       width="1.0919795"
       height="1.0919795">
      <feGaussianBlur
         inkscape:collect="always"
         stdDeviation="0.094869187"
         id="feGaussianBlur6" />
    </filter>
    <filter
       inkscape:collect="always"
       style="color-interpolation-filters:sRGB"
       id="filter7"
       x="-0.15141119"
       y="-0.20492461"
       width="1.3028224"
       height="1.4098492">
      <feGaussianBlur
         inkscape:collect="always"
         stdDeviation="0.5333783"
         id="feGaussianBlur7" />
    </filter>
    <filter
       inkscape:collect="always"
       style="color-interpolation-filters:sRGB"
       id="filter8"
       x="-0.58651492"
       y="-0.96434893"
       width="2.1730298"
       height="2.9286979">
      <feGaussianBlur
         inkscape:collect="always"
         stdDeviation="0.19530652"
         id="feGaussianBlur8" />
    </filter>
    <linearGradient
       inkscape:collect="always"
       xlink:href="#linearGradient31"
       id="linearGradient23"
       x1="-103.49586"
       y1="15.492489"
       x2="2.7354171"
       y2="-1.9028767"
       gradientUnits="userSpaceOnUse"
       gradientTransform="matrix(0.86508438,-0.24299152,0.24299152,0.86508438,-15.586247,-0.94124791)" />
    <linearGradient
       inkscape:collect="always"
       xlink:href="#linearGradient22"
       id="linearGradient26"
       gradientUnits="userSpaceOnUse"
       x1="-103.49586"
       y1="15.492489"
       x2="2.7354171"
       y2="-1.9028767"
       gradientTransform="matrix(0.71731322,0.16964165,-0.16964165,0.71731322,22.66806,13.877531)" />
    <linearGradient
       inkscape:collect="always"
       xlink:href="#linearGradient32"
       id="linearGradient33"
       x1="15.494447"
       y1="139.76698"
       x2="108.98685"
       y2="139.76698"
       gradientUnits="userSpaceOnUse" />
    <linearGradient
       inkscape:collect="always"
       xlink:href="#linearGradient34"
       id="linearGradient35"
       x1="14.018837"
       y1="51.902889"
       x2="79.444519"
       y2="51.902889"
       gradientUnits="userSpaceOnUse" />
  </defs>
  <g
     inkscape:label="Layer 1"
     inkscape:groupmode="layer"
     id="layer1">
    <g
       id="g10"
       inkscape:label="bird"
       transform="rotate(6.2009358,-316.47924,1208.8566)"
       style="display:inline">
      <g
         id="g21"
         inkscape:label="foot2"
         style="display:inline">
        <g
           id="g20"
           inkscape:label="fangs">
          <path
             style="fill:#a3421d;fill-opacity:1"
             d="m 122.72722,170.85468 c 0,0 -3.0494,3.66811 -5.96621,0.30935 -2.91682,-3.35875 1.90035,2.56327 4.68458,-0.7071 2.78423,-3.27037 1.28163,0.39775 1.28163,0.39775 z"
             id="path17"
             inkscape:label="fang1"
             transform="rotate(-6.2009358,-468.00526,1311.9861)" />
          <path
             style="display:inline;fill:#a3421d;fill-opacity:1;stroke-width:0.621275"
             d="m -4.1196827,107.89947 c 0,0 -0.3894905,2.93784 -3.0346707,2.13706 -2.645183,-0.80079 1.8474705,0.71889 2.2291628,-1.92207 0.3816893,-2.64096 0.8055159,-0.21495 0.8055159,-0.21495 z"
             id="path18"
             inkscape:label="fang2" />
          <path
             style="display:inline;fill:#a3421d;fill-opacity:1;stroke-width:0.878509"
             d="m -8.9488396,105.75247 c 0,0 -2.7815784,2.99103 0.7870518,4.96409 3.5686422,1.97307 -2.6651592,-1.23699 -0.1969123,-3.95776 2.4682506,-2.72076 -0.5902382,-1.00629 -0.5902382,-1.00629 z"
             id="path19"
             inkscape:label="fang3" />
          <path
             style="display:inline;fill:#a3421d;fill-opacity:1;stroke-width:0.892756"
             d="m -10.566347,99.382414 c 0,0 -3.944657,1.604606 -1.873963,4.993466 2.070672,3.38886 -1.668193,-2.30914 1.866424,-3.79547 3.5346065,-1.486348 0.0075,-1.197996 0.0075,-1.197996 z"
             id="path20"
             inkscape:label="fang4" />
        </g>
        <path
           style="fill:#f7c2a2;fill-opacity:1"
           d="m 126.9375,151.875 c 1e-5,-0.0537 1.40659,2.3806 1.875,3.75 0.38328,1.12053 -1.92909,10.01781 -4.875,14 -2.38926,3.22973 -3.67777,-0.79145 -2.83594,-1.8125 0.87561,-1.062 1.37381,-1.43791 2.01563,-2.21094 0.28754,-0.34633 -1.30181,-0.69568 -1.36719,-1.53125 -0.0677,-0.86492 1.01563,-0.97656 1.26563,-1.35156 0.25,-0.375 0.23437,-1.03906 -0.17969,-0.97656 -0.89063,0.14062 -1.26563,1.27344 -1.71094,1.44531 -0.76024,0.29343 -1.42969,0.17969 -1.92969,0.11719 -0.5,-0.0625 -1.75781,-0.57031 -1.13281,-1.44531 0.625,-0.875 4.39063,-2.54688 6.07813,-4.98438 0.69956,-1.01048 0.009,-1.69834 -0.27291,-1.49766 -0.57953,0.41326 -1.4323,0.85169 -1.57866,0.88828 -0.25,0.0625 -3.21094,1.46094 -3.875,1.28907 -0.76535,-0.19809 -1.29218,-1.53528 -0.77344,-2.33594 0.35938,-0.55469 4.74219,-0.50781 5.74219,-1.75781 1,-1.25 -2.94531,-1.71094 -2.94531,-1.71094 z"
           id="path21"
           transform="rotate(-6.2009358,-468.00526,1311.9861)"
           inkscape:label="foot"
           sodipodi:nodetypes="csssssscssssssssscc" />
      </g>
      <g
         id="g17"
         inkscape:label="foot1"
         style="display:inline"
         transform="rotate(-23.676791,-8.5279441,120.05446)">
        <g
           id="g16"
           inkscape:label="fangs">
          <path
             style="fill:#a3421d;fill-opacity:1;stroke-width:1.25756"
             d="m -9.9778267,112.95321 c 0,0 -5.1184193,3.12824 -7.2268533,-2.05344 -2.108449,-5.18169 1.221479,3.82227 5.862832,1.05982 4.6413608,-2.76246 1.3640213,0.99362 1.3640213,0.99362 z"
             id="path16"
             inkscape:label="fang1" />
          <path
             style="display:inline;fill:#a3421d;fill-opacity:1;stroke-width:0.621275"
             d="m -7.0653934,108.55279 c 0,0 -2.1643182,2.02443 -3.7016376,-0.27228 -1.537315,-2.29672 0.9724894,1.72749 2.9424972,-0.0724 1.9700054,-1.79984 0.759121,0.34467 0.759121,0.34467 z"
             id="path16-7"
             inkscape:label="fang2" />
          <path
             style="display:inline;fill:#a3421d;fill-opacity:1;stroke-width:1.13307"
             d="m -15.737141,104.40377 c 0,0 -5.219249,-0.7156 -4.653317,4.5132 0.56593,5.22881 -0.672215,-3.72952 4.029439,-3.144 4.701651,0.58555 0.623766,-1.36927 0.623766,-1.36927 z"
             id="path16-7-9"
             inkscape:label="fang3" />
          <path
             style="display:inline;fill:#a3421d;fill-opacity:1;stroke-width:0.907172"
             d="m -8.300839,99.538213 c 0,0 -4.185004,-1.100576 -4.567827,2.916777 -0.382843,4.01734 0.05174,-2.894225 3.8312985,-1.94749 3.7795623,0.94671 0.7364968,-0.96931 0.7364968,-0.96931 z"
             id="path16-3"
             inkscape:label="fang4" />
        </g>
        <path
           style="display:inline;fill:#f7c2a2;fill-opacity:1"
           d="m -2.4393041,95.165789 c 1.71640162,1.864829 2.54356353,7.056231 2.10621477,8.435871 -1.76506057,5.56798 -5.43819177,4.62537 -7.93672717,8.90246 -2.0264195,3.46891 -4.4959055,0.0256 -4.1244745,-1.42387 2.085593,-1.03285 2.7141532,-0.88405 3.2687188,-1.72188 0.2484486,-0.37536 1.4741254,-0.48183 1.3188733,-1.30543 -0.1607287,-0.85255 1.1045718,-0.69944 1.3126032,-1.09925 0.2080315,-0.39981 1.2671434,-1.44528 0.862257,-1.33842 -1.3247615,0.42881 -1.9375367,1.0697 -4.5720823,0.55699 -0.883477,-0.17193 -2.82416,0.64567 -6.129938,0.74669 -0.653384,0.02 -1.422349,-2.77859 -0.09736,-3.45121 1.303024,-0.66147 9.2295679,0.56303 10.6439067,-2.04249 0.5863194,-1.08013 0.3300651,-0.79454 0.071481,-0.56458 -0.5315008,0.47344 -1.3836182,0.85891 -1.5251696,0.91109 -0.2417863,0.0891 -1.4434632,0.0111 -2.0889295,-0.22103 -0.6725866,-0.2419 0.093831,-1.816344 0.6148012,-2.615555 0.3949423,-0.605874 2.0540603,-0.458061 2.91319,-1.808763 0.8591297,-1.350702 -1.9387293,-5.553733 -1.9387293,-5.553733 z"
           id="path15"
           inkscape:label="foot"
           sodipodi:nodetypes="csscssscssssssssscc" />
      </g>
      <path
         style="display:inline;fill:url(#linearGradient33);fill-opacity:1"
         d="m 105.28905,120.2952 c -30.309625,8.57794 -64.941845,10.18469 -83.640834,10.33211 -8.241197,0.065 19.221862,2.05808 16.884635,2.61649 -23.026603,-1.31012 -25.178792,5.54815 -21.736892,4.63824 9.291632,-2.45635 34.402833,-2.63838 51.298974,-3.44233 -7.764378,3.80343 -32.002325,6.56716 -33.25638,7.3515 -2.36292,4.06952 29.539012,-3.17111 37.732173,-3.04582 -6.283541,3.19292 -22.628589,6.83423 -23.06273,7.5492 -0.397032,3.25598 27.019269,-4.04879 40.528904,-6.07319 -0.638478,0.59648 -11.798975,7.42707 -16.960916,11.021 -4.113517,2.44564 -7.032917,4.6176 -7.089875,5.15739 0.729862,3.49695 14.900785,-4.84975 21.602091,-7.41082 -3.01353,3.43891 -11.563809,8.88877 -8.790537,10.2515 2.478694,1.5966 19.07738,-8.49812 24.185117,-11.83887 0,0 11.80731,-29.79529 2.30627,-27.1064 z"
         id="path14"
         sodipodi:nodetypes="sscsccccccccccs"
         inkscape:label="butt"
         transform="rotate(-6.2009358,-468.00526,1311.9861)" />
      <g
         id="g37"
         inkscape:label="wings">
        <path
           style="display:inline;fill:url(#linearGradient26);fill-opacity:1;stroke-width:0.7371"
           d="M 17.21193,54.810788 C 16.679542,49.725181 13.37773,28.628044 13.853253,25.887068 14.371938,22.897311 0.9321606,8.8158018 -3.5022112,4.9680578 -14.033729,-4.1702379 -48.939969,-34.518306 -49.454051,-32.258985 c -0.436058,1.916525 1.420875,3.300831 2.107471,5.16054 0.01529,0.0904 -3.260972,-1.962583 -4.914955,-2.283917 -1.545077,-0.300176 1.988494,3.973474 1.988494,3.973474 -0.0018,0.0015 -1.344468,-0.730917 -1.807364,-0.770769 -1.298411,-0.111789 -0.225912,1.882901 1.601043,3.821004 2.195881,2.329472 5.08936,5.037337 6.460626,5.621603 -0.84842,0.24785 -3.755174,-1.823262 -4.311782,-1.349869 -0.515235,0.438194 -0.01834,1.768158 0.36081,2.319806 1.560651,2.27068 4.724692,5.579607 4.724692,5.579607 0,0 -0.904506,0.10093 -1.178363,0.5146856 -0.342866,0.5180414 -0.138069,1.2802128 0.112098,1.8941954 0.762094,1.8703917 3.683055,4.9042784 3.683055,4.9042784 0,0 0.266913,1.2541878 0.660706,2.05542443 0.829446,1.68763676 3.355598,3.99299017 3.355598,3.99299017 0,0 -0.52266,0.5441815 -0.589663,0.9130395 -0.137573,0.757256 0.471353,1.7461574 0.897963,2.3867598 0.938854,1.4097998 3.486847,3.4986717 3.486847,3.4986717 0,0 -1.664026,0.59343 -0.268997,2.810019 1.395023,2.216588 3.51829,3.525804 3.51829,3.525804 -0.687633,0.364357 -0.0487,2.474038 0.38538,3.146915 0.705556,1.093695 2.667973,2.494409 2.67223,2.491849 0,0 -0.685825,1.29275 -0.550734,1.904429 0.206576,0.935378 2.097424,2.106327 2.097424,2.106327 -0.0024,0.0082 -0.466295,0.516658 -0.16682,1.443547 0.333433,1.032002 0.924737,0.496637 1.143939,1.357203 0.192591,0.756087 -0.218758,1.523838 -0.206537,1.525358 0,0 -1.031539,1.743277 0.09072,2.301031 0.485561,0.241324 0.664397,0.678406 0.153936,1.135326 -0.224586,0.201035 -0.567499,2.022843 -0.17997,2.365777 0.308214,0.272748 0.492082,2.003558 0.585577,2.018019 0,0 -1.564485,0.604033 -2.201232,2.384672 -0.585295,1.636738 -3.008182,5.638825 -3.00807,5.960799 -0.136602,0.05697 -0.24665,0.985925 0.436897,1.498864 0.575932,0.432172 -0.91472,1.700266 -0.822742,1.62867 0.0187,-0.05662 -0.408812,1.51275 0.266359,1.781709 0.734848,0.292719 -0.734033,1.404612 -0.819664,1.572038 0.05573,0.04173 -0.258285,0.658024 0.404485,1.232209 1.480624,1.282721 0.823867,1.057248 0.820594,1.054284 -1.052214,0.474526 -1.447067,0.83456 -1.033679,1.97212 0.748712,1.807161 2.9177,1.317248 4.425017,1.897476 0.137514,0.847329 1.329097,3.443423 5.33434,2.50323 3.158922,-0.741525 5.947021,-2.687213 9.09798,-3.461872 9.0799054,-2.232304 28.272816,0.683198 27.853999,-3.317554 z"
           id="path22-8"
           sodipodi:nodetypes="sssscscsscsscsscscsscscscscsscssscscscscscccsss"
           inkscape:label="wing2" />
        <path
           style="display:inline;mix-blend-mode:normal;fill:url(#linearGradient23);fill-opacity:1;stroke-width:0.898563"
           d="M 2.784304,45.928243 C -0.78853573,40.820272 -16.775789,20.276408 -17.888448,17.07283 -19.102098,13.57848 -41.753365,6.5057773 -48.755244,5.0234425 -65.38453,1.5029347 -120.53677,-10.229185 -119.74984,-7.5163876 c 0.66757,2.3011799 3.46555,2.6799128 5.29657,4.257119 0.0697,0.087351 -4.63676,-0.1656512 -6.59022,0.4690904 -1.82482,0.5929463 4.46824,3.0617097 4.46824,3.0617097 -9.8e-4,0.002765 -1.86546,0.0151244 -2.38257,0.246165 -1.45049,0.6480596 0.87177,2.141149 3.96502,3.1280874 3.7179,1.1862302 8.40322,2.3637029 10.2106,2.176372 -0.75818,0.7656187 -5.08138,0.2749347 -5.39514,1.1086001 -0.29043,0.7716921 1.02528,1.8961516 1.75554,2.2603028 3.00584,1.4989112 8.33482,3.1573892 8.33482,3.1573892 0,0 -0.90479,0.642105 -0.95229,1.245101 -0.0594,0.754971 0.60928,1.446624 1.238841,1.953458 1.917829,1.543986 6.825104,3.052839 6.825104,3.052839 0,0 1.025718,1.179562 1.919069,1.801186 1.881654,1.309322 5.937459,2.274671 5.937459,2.274671 0,0 -0.235721,0.889085 -0.0892,1.321976 0.300803,0.88872 1.534417,1.583323 2.367835,2.014279 1.834134,0.948422 5.785305,1.670042 5.785305,1.670042 0,0 -1.423617,1.616051 1.373664,3.155158 2.797281,1.539105 5.834858,1.680393 5.834858,1.680393 -0.517885,0.794831 1.410025,2.666738 2.27049,3.127692 1.398587,0.749228 4.318737,1.083127 4.321761,1.077878 0,0 0.03264,1.783676 0.538129,2.356051 0.773001,0.875284 3.481063,1.006486 3.481063,1.006486 0.0023,0.01012 -0.191894,0.826427 0.675135,1.637765 0.965352,0.903346 1.279487,-0.0169 2.021729,0.771154 0.652134,0.69238 0.667203,1.754073 0.681141,1.748473 0,0 -0.06975,2.468333 1.456442,2.399887 0.660335,-0.02962 1.109302,0.330749 0.835022,1.119583 -0.120676,0.347068 0.590234,2.492214 1.206074,2.628876 0.489807,0.108692 1.708626,1.845532 1.816857,1.805703 0,0 -1.311202,1.568531 -0.937934,3.843416 0.343104,2.091047 0.124587,7.790026 0.314967,8.133264 -0.111984,0.141469 0.319597,1.197006 1.351558,1.340004 0.869462,0.120482 0.02939,2.353444 0.08515,2.22275 -0.0133,-0.07146 0.457987,1.854565 1.336846,1.742363 0.956515,-0.122114 0.04734,1.931439 0.05497,2.160555 0.08407,0.0116 0.11344,0.854249 1.159418,1.074834 2.33671,0.492786 1.503209,0.640459 1.497959,0.639239 -0.841516,1.127737 -1.049781,1.744948 0.0632,2.713602 1.8662,1.48447 3.889396,-0.319597 5.839453,-0.591625 0.64733,0.822204 3.451933,2.886185 7.166979,-0.483067 2.930043,-2.657319 4.753131,-6.379459 7.655098,-9.067409 8.362409,-7.74569 30.5498052,-15.978441 27.7391231,-19.996782 z"
           id="path22"
           sodipodi:nodetypes="sssscscsscsscsscscsscscscscsscssscscscscscccsss"
           inkscape:label="wing1" />
      </g>
      <path
         style="display:inline;mix-blend-mode:normal;fill:url(#linearGradient35);fill-opacity:1"
         d="M 73.923739,42.804428 C 70.036466,60.606915 57.810578,76.137761 42.558426,87.576876 27.306273,99.01599 13.776138,77.490775 14.02214,74.661747 14.268143,71.832718 12.915129,39.114391 52.644526,19.557196 92.373924,0 77.072097,28.385938 73.923739,42.804428 Z"
         id="path10"
         inkscape:label="body"
         transform="rotate(34.813632,-0.86281602,-1.4042665)"
         sodipodi:nodetypes="sssss" />
      <path
         style="display:inline;mix-blend-mode:normal;fill:#eaf32a;fill-opacity:1;stroke-linejoin:round"
         d="M 24.600246,45.01845 C 13.137231,52.911683 31.35418,70.344104 42.804428,70.110701 50.024705,69.963522 52.817819,59.734929 60.0246,56.949569 63.71262,55.52418 56.142815,49.420708 58.283599,49.295755 67.395083,48.763934 65.218903,39.131464 62.484625,36.531365 59.572363,33.762016 51.432391,26.542301 24.600246,45.01845 Z"
         id="path1"
         sodipodi:nodetypes="ssssss"
         inkscape:label="head" />
      <path
         style="display:inline;fill:#eead2a;fill-opacity:1;stroke-linejoin:round"
         d="m 59.778598,56.826568 c 3.520341,0.437458 8.710034,-1.492937 8.688896,-1.969851 -0.09029,-2.037193 -8.260928,-4.559604 -9.252273,-5.118096 -1.133578,-0.638622 7.865687,2.658838 9.665468,4.750924 0.806312,0.937267 0.527742,2.883198 0.492004,4.551045 0,0 7.186807,-7.098866 -3.936039,-16.482165 -4.977529,-2.871614 -12.612269,11.140895 -5.658056,14.268143"
         id="path2"
         sodipodi:nodetypes="csssccc"
         inkscape:label="beek" />
      <g
         id="g9"
         inkscape:label="full-eye"
         style="display:inline">
        <path
           style="display:inline;mix-blend-mode:normal;fill:#ffffff;fill-opacity:1;stroke-linejoin:round;filter:url(#filter7)"
           id="path3"
           inkscape:path-effect="#path-effect3"
           sodipodi:type="arc"
           sodipodi:cx="52.576389"
           sodipodi:cy="47.705788"
           sodipodi:rx="4.2604952"
           sodipodi:ry="3.4148617"
           d="m 56.600087,48.831218 c -0.02677,0.0615 -0.05568,0.1222 -0.08665,0.182041 -1.133536,2.190344 -6.740583,2.190342 -7.874108,-1.7e-5 -0.08901,-0.172005 -0.160992,-0.351103 -0.21425,-0.535943 -0.119145,-0.413518 -0.119145,-1.129514 6e-6,-1.543041 0.228553,-0.793217 0.801877,-1.480692 1.586661,-1.955574 1.25464,-0.759196 3.874654,-0.759197 5.129299,1.1e-5 0.66553,0.402723 1.178982,0.95834 1.459048,1.60168 0.253523,0.582367 0.253523,1.668469 -8e-6,2.250843 z"
           inkscape:label="eye-white" />
        <g
           id="g8"
           style="display:inline"
           inkscape:label="eye">
          <circle
             style="display:inline;mix-blend-mode:normal;fill:#000000;fill-opacity:1;filter:url(#filter6)"
             id="path4"
             cx="52.402439"
             cy="47.868866"
             r="2.4753997"
             transform="matrix(0.79523197,0,0,0.79523197,10.853345,9.3715089)"
             inkscape:label="eye" />
          <path
             style="mix-blend-mode:normal;fill:#ffffff;fill-opacity:1;filter:url(#filter8)"
             id="path7"
             sodipodi:type="arc"
             sodipodi:cx="51.758972"
             sodipodi:cy="46.57341"
             sodipodi:rx="0.39959398"
             sodipodi:ry="0.28148234"
             sodipodi:start="5.4695304"
             sodipodi:end="3.2515677"
             sodipodi:arc-type="slice"
             d="m 52.033432,46.368828 a 0.39959398,0.28148234 0 0 1 0.06798,0.349645 0.39959398,0.28148234 0 0 1 -0.470301,0.121621 0.39959398,0.28148234 0 0 1 -0.269322,-0.297578 l 0.39718,0.03089 z"
             inkscape:label="shine" />
        </g>
      </g>
    </g>
  </g>
</svg>
